# Arquivo OBJ gerado pelo Sistema Gráfico Interativo

o Cubo
usercor 0.0000 0.0000 1.0000
usertype Objeto3D
v -50.0 -50.0 -50.0
v 50.0 -50.0 -50.0
v 50.0 -50.0 -50.0
v 50.0 50.0 -50.0
v 50.0 50.0 -50.0
v -50.0 50.0 -50.0
v -50.0 50.0 -50.0
v -50.0 -50.0 -50.0
v -50.0 -50.0 50.0
v 50.0 -50.0 50.0
v 50.0 -50.0 50.0
v 50.0 50.0 50.0
v 50.0 50.0 50.0
v -50.0 50.0 50.0
v -50.0 50.0 50.0
v -50.0 -50.0 50.0
v -50.0 -50.0 -50.0
v -50.0 -50.0 50.0
v 50.0 -50.0 -50.0
v 50.0 -50.0 50.0
v 50.0 50.0 -50.0
v 50.0 50.0 50.0
v -50.0 50.0 -50.0
v -50.0 50.0 50.0
l 1 2
l 3 4
l 5 6
l 7 8
l 9 10
l 11 12
l 13 14
l 15 16
l 17 18
l 19 20
l 21 22
l 23 24
